<svg height="124" viewBox="0 0 124 124" width="124" xmlns="http://www.w3.org/2000/svg"><g fill="none" fill-rule="evenodd"><path d="m65.433 101.465c.626.33 1.328.535 2.083.535 2.481 0 4.5-2.019 4.5-4.5 0-.208-.034-.407-.061-.607-.192-1.402-1.023-2.59-2.198-3.272-.662-.384-1.421-.621-2.24-.621-2.481 0-4.5 2.019-4.5 4.5 0 .252.034.494.074.735.233 1.409 1.121 2.585 2.342 3.23z"/><path d="m102.031 54.44c1.825-.574 3.161-2.262 3.161-4.274 0-1.138-.438-2.166-1.137-2.959-.825-.937-2.02-1.541-3.363-1.541-.109 0-.212.025-.319.032-2.33.167-4.181 2.096-4.181 4.468 0 1.529.77 2.877 1.938 3.691.728.507 1.609.809 2.562.809.469.001.913-.092 1.339-.226z"/><path d="m88.071 80.985c.308.067.626.107.954.107 2.481 0 4.5-2.019 4.5-4.5 0-.875-.261-1.685-.695-2.377-.697-1.111-1.861-1.885-3.218-2.064-.194-.026-.386-.059-.587-.059-2.481 0-4.5 2.019-4.5 4.5 0 .74.196 1.428.514 2.044.607 1.177 1.703 2.06 3.032 2.349z"/><g fill="#3776ff" fill-rule="nonzero"><g opacity=".5" transform="translate(5.999545 6)"><path d="m101.033455 14.667v-7.839l7.769 7.768c.39.391.902.586 1.414.586s1.024-.195 1.414-.586c.781-.781.781-2.047 0-2.828l-11.182-11.181c-.093-.093-.196-.177-.306-.25-.05-.033-.105-.057-.1580001-.086-.062-.034-.122-.071-.186-.098-.066-.027-.136-.044-.206-.064-.056-.016-.111-.038-.168-.05-.126-.025-.257-.039-.391-.039s-.265.014-.392.039c-.057.011-.112.034-.168.05-.069.02-.139.036-.205.064-.065.027-.125.065-.187.099-.052.029-.108.052-.157.085-.11.074-.213.157-.306.25l-11.181 11.181c-.781.781-.781 2.047 0 2.828.78.781 2.048.781 2.828 0l7.769-7.768v7.838c0 7.408-.619 14.414-1.835 21.026 1.381.082 2.672.492 3.799 1.158 1.3030001-6.771 2.0350001-14.14 2.0350001-22.183z"/><path d="m110.033455 110h-84.3380001c7.766-2.064 16.729-5.186 25.747-9.894 1.421-.742 2.86-1.535 4.308-2.379-.986-.913-1.752-2.054-2.219-3.342-1.251.721-2.518 1.431-3.823 2.114-23.588 12.354-47.55300001 13.492-47.79200001 13.503-1.087.046-1.939.952-1.916 2.04s.911 1.958 1.999 1.958h108.03300011c1.104 0 2-.896 2-2s-.895-2-1.999-2z"/><path d="m94.5544549 52.66c-1.362-.022-2.646-.365-3.781-.958-1.433 3.78-3.112 7.394-5.035 10.842 1.241.419 2.357 1.113 3.268 2.016 2.068-3.675 3.934-7.634 5.548-11.9z"/><path d="m69.3394549 88.178c3.476-2.924 6.864-6.212 10.053-9.914-1.179-.561-2.21-1.38-3.015-2.392-2.832 3.253-5.96 6.301-9.369 9.151 1.003.852 1.808 1.928 2.331 3.155z"/></g><path d="m100.692 58.667c-.047 0-.092-.007-.138-.007-1.362-.022-2.646-.365-3.781-.958-2.718-1.42-4.581-4.262-4.581-7.535 0-4.687 3.813-8.5 8.5-8.5.171 0 .338.016.506.026 1.381.082 2.672.492 3.799 1.158 2.506 1.48 4.195 4.201 4.195 7.316 0 4.687-3.813 8.5-8.5 8.5zm-2.562-4.809c.728.507 1.609.809 2.562.809.469 0 .913-.092 1.339-.226 1.825-.575 3.161-2.262 3.161-4.274 0-1.138-.438-2.166-1.137-2.959-.825-.937-2.019-1.541-3.363-1.541-.109 0-.212.024-.319.032-2.331.168-4.181 2.096-4.181 4.468 0 1.529.77 2.877 1.938 3.691z"/><path d="m85.392 84.264c-1.179-.56-2.21-1.38-3.015-2.392-1.156-1.452-1.852-3.285-1.852-5.281 0-4.687 3.813-8.5 8.5-8.5.949 0 1.859.163 2.712.451 1.241.42 2.357 1.113 3.268 2.016 1.554 1.541 2.52 3.676 2.52 6.033 0 4.687-3.813 8.5-8.5 8.5-1.301 0-2.53-.302-3.633-.827zm-.867-7.672c0 .739.197 1.428.514 2.044.607 1.178 1.703 2.06 3.032 2.349.308.067.626.107.954.107 2.481 0 4.5-2.019 4.5-4.5 0-.875-.262-1.685-.695-2.377-.696-1.111-1.86-1.884-3.218-2.064-.194-.025-.386-.059-.587-.059-2.481 0-4.5 2.019-4.5 4.5z"/><path d="m67.516 106c-2.226 0-4.249-.867-5.766-2.273-.986-.914-1.752-2.055-2.219-3.342-.327-.902-.515-1.871-.515-2.885 0-4.687 3.813-8.5 8.5-8.5 2.093 0 4.009.765 5.492 2.024 1.002.851 1.808 1.927 2.331 3.154.435 1.021.677 2.144.677 3.322 0 4.687-3.813 8.5-8.5 8.5zm-4.5-8.5c0 .252.034.494.073.735.234 1.409 1.122 2.585 2.343 3.23.626.33 1.328.535 2.083.535 2.481 0 4.5-2.019 4.5-4.5 0-.208-.034-.406-.061-.607-.191-1.402-1.022-2.59-2.198-3.272-.662-.385-1.421-.621-2.24-.621-2.481 0-4.5 2.019-4.5 4.5z"/><path d="m103.619 6.586-.001.001c.093-.093.196-.177.306-.25-.108.072-.211.154-.305.249z" opacity=".4"/><path d="m103.619 6.586-.001.001c.093-.093.196-.177.306-.25-.108.072-.211.154-.305.249z" opacity=".4"/><path d="m106.447 6.586c-.095-.095-.197-.177-.305-.249.11.074.213.157.306.25z" opacity=".4"/><path d="m106.447 6.586c-.095-.095-.197-.177-.305-.249.11.074.213.157.306.25z" opacity=".4"/></g></g></svg>