<svg height="124" viewBox="0 0 124 124" width="124" xmlns="http://www.w3.org/2000/svg"><g fill="#46e097"><g opacity=".5" transform="translate(10.205 9.222653)"><path d="m51.795 79.7773466c-15.439 0-28-12.561-28-28s12.561-28 28-28 28 12.561 28 28-12.561 28-28 28zm0-52c-13.233 0-24 10.766-24 24 0 13.233 10.767 24 24 24s24-10.767 24-24c0-13.234-10.767-24-24-24z"/><path d="m4.25 38.8663466c-.198 0-.399-.03-.599-.092-1.055-.331-1.641-1.453-1.311-2.506 6.527-20.84 25.574-35.41400002 47.396-36.26700002 1.097-.04 2.033.816 2.076 1.92.044 1.104-.816 2.034-1.92 2.077-20.136.787-37.711 14.23600002-43.735 33.46500002-.267.856-1.056 1.403-1.907 1.403z"/><path d="m38.774 97.7993466c-20.197-5.702-34.379-24.177-34.777-45.12-.309.061-.627.098-.952.098h-3.045c.441 22.685 15.808 42.694 37.689 48.8720004.182.051.364.076.544.076.873 0 1.675-.576 1.924-1.458.299-1.0620004-.319-2.1680004-1.383-2.4680004z"/><path d="m52.348 103.590347c-1.095 0-1.988-.881-2-1.979-.012-1.104.874-2.0100004 1.979-2.0210004 21.137-.229 39.355-13.994 45.336-34.252.312-1.059 1.424-1.663 2.484-1.352 1.06.312 1.664 1.425 1.352 2.484-6.48 21.953-26.224 36.8700004-49.129 37.1190004-.008.001-.015.001-.022.001z"/><path d="m101.611 53.7773466c-1.104 0-2-.896-2-2 0-21.198-14.211-40.096-34.559-45.95500002-1.062-.306-1.674-1.414-1.368-2.475.306-1.062 1.413-1.673 2.476-1.369 22.051 6.35 37.451 26.82800002 37.451 49.79900002 0 1.104-.895 2-2 2z"/></g><path d="m62 69.5c-4.687 0-8.5-3.813-8.5-8.5s3.813-8.5 8.5-8.5 8.5 3.813 8.5 8.5-3.813 8.5-8.5 8.5zm0-13c-2.481 0-4.5 2.019-4.5 4.5s2.019 4.5 4.5 4.5 4.5-2.019 4.5-4.5-2.019-4.5-4.5-4.5z"/><path d="m122 63h-19.816c-1.104 0-2-.896-2-2s.896-2 2-2h19.816c1.104 0 2 .896 2 2s-.896 2-2 2z"/><path d="m21.816 63h-19.816c-1.104 0-2-.896-2-2s.896-2 2-2h19.816c1.104 0 2 .896 2 2s-.895 2-2 2z"/><path d="m61 123c-1.104 0-2-.896-2-2v-19.817c0-1.104.896-2 2-2s2 .896 2 2v19.817c0 1.104-.896 2-2 2z"/><path d="m62 23c-1.104 0-2-.896-2-2v-18c0-1.104.896-2 2-2s2 .896 2 2v18c0 1.104-.896 2-2 2z"/></g></svg>