<svg height="124" viewBox="0 0 124 124" width="124" xmlns="http://www.w3.org/2000/svg"><g fill="#ff7b2b"><path d="m109.992 114.423c-.507 0-1.015-.077-1.508-.229-7.742-2.381-21.842-7.146-25.979-8.55-1.266-.429-2.388-1.127-3.334-2.074l-71.624-71.624c-1.833-1.833-1.833-4.815 0-6.648l18.498-18.499c.886-.886 2.066-1.374 3.324-1.374s2.438.488 3.324 1.374l71.609 71.609c.961.961 1.664 2.099 2.091 3.383 1.391 4.183 6.108 18.426 8.42 26.112.467 1.552.184 3.183-.776 4.473-.954 1.282-2.466 2.047-4.045 2.047zm-80.623-104.997c-.109 0-.32.026-.496.202l-18.498 18.497c-.269.269-.269.723 0 .992l71.624 71.624c.51.51 1.112.885 1.791 1.114 4.125 1.4 18.179 6.149 25.87 8.515.451.142.898-.019 1.167-.381.142-.19.284-.508.155-.935-2.296-7.635-6.999-21.832-8.385-26.002-.229-.688-.607-1.3-1.124-1.816l-71.608-71.609c-.176-.175-.386-.201-.496-.201z"/><g opacity=".5" transform="translate(5 5)"><path d="m26.886 114.001c-1.146 0-2.291-.436-3.164-1.307l-22.414-22.416c-.844-.842-1.308-1.966-1.308-3.164 0-1.197.464-2.32 1.308-3.164l19.687-19.81c.375-.377.862-.585 1.418-.59.53 0 1.039.21 1.414.586l11.675 11.675c.781.781.781 2.047 0 2.828-.78.781-2.048.781-2.828 0l-10.257-10.256-18.277 18.392c-.122.122-.14.265-.14.339 0 .075.018.218.136.335l22.415 22.416c.181.182.489.183.671-.001l30.538-30.534c.781-.781 2.048-.781 2.828 0 .781.781.781 2.047 0 2.828l-30.539 30.535c-.872.872-2.018 1.308-3.163 1.308z"/><path d="m22.801 89.918c-.512 0-1.024-.195-1.414-.586l-11.35-11.35c-.781-.781-.781-2.047 0-2.828.78-.781 2.048-.781 2.828 0l11.35 11.35c.781.781.781 2.047 0 2.828-.39.391-.902.586-1.414.586z"/><path d="m88.748 26.998c-.512 0-1.024-.195-1.414-.586l-11.429-11.429c-.781-.781-.781-2.047 0-2.828.78-.781 2.048-.781 2.828 0l11.429 11.429c.781.781.781 2.047 0 2.828-.391.39-.903.586-1.414.586z"/><path d="m81.567 60.501c-.512 0-1.024-.195-1.414-.586-.781-.781-.781-2.047 0-2.828l29.707-29.707c.122-.123.14-.27.14-.346s-.018-.224-.14-.345l-22.549-22.549c-.123-.122-.27-.14-.346-.14s-.224.018-.345.14l-18.565 18.449 10.326 10.326c.781.781.781 2.047 0 2.828-.78.781-2.048.781-2.828 0l-11.745-11.745c-.376-.375-.587-.886-.586-1.417.001-.532.213-1.041.59-1.416l19.984-19.858c.84-.842 1.968-1.307 3.169-1.307s2.329.466 3.174 1.312l22.549 22.549c.846.845 1.312 1.973 1.312 3.174s-.466 2.329-1.312 3.174l-29.707 29.707c-.39.39-.902.585-1.414.585z"/></g></g></svg>